<svg width="484" height="219" viewBox="0 0 484 219" fill="none" xmlns="http://www.w3.org/2000/svg">
<path fill-rule="evenodd" clip-rule="evenodd" d="M353.189 126.616C356.304 127.007 359.155 127.122 359.523 126.864C360.974 125.851 359.974 124.76 357.862 125.052C356.633 125.228 354.262 125.17 352.589 124.927C350.919 124.684 349.096 124.804 348.538 125.192C347.913 125.627 349.707 126.174 353.189 126.616Z" fill="#619CF4" fill-opacity="0.6"/>
<path fill-rule="evenodd" clip-rule="evenodd" d="M224.624 130.915C224.65 131.365 226.138 131.649 227.932 131.547C229.726 131.445 231.177 130.995 231.151 130.544C231.126 130.097 229.633 129.813 227.839 129.915C226.045 130.017 224.599 130.467 224.624 130.915Z" fill="#619CF4" fill-opacity="0.6"/>
<path fill-rule="evenodd" clip-rule="evenodd" d="M306.469 135.796C305.752 136.599 306.739 137.714 308.1 137.637C308.749 137.6 309.245 137.019 309.206 136.344C309.137 135.114 307.391 134.766 306.469 135.796Z" fill="#619CF4" fill-opacity="0.6"/>
<path fill-rule="evenodd" clip-rule="evenodd" d="M393.101 123.435C397.869 122.626 400.052 121.589 398.603 120.807C398.216 120.602 395.038 120.331 391.542 120.206C384.892 119.966 383.962 120.5 386.732 122.977C387.918 124.036 389.073 124.113 393.101 123.435Z" fill="#619CF4" fill-opacity="0.6"/>
<path fill-rule="evenodd" clip-rule="evenodd" d="M299.804 136.467C300.108 136.899 300.862 137.227 301.482 137.192C302.1 137.157 302.815 136.746 303.068 136.282C303.327 135.801 302.605 135.488 301.39 135.557C300.171 135.627 299.492 136.018 299.804 136.467Z" fill="#619CF4" fill-opacity="0.6"/>
<path fill-rule="evenodd" clip-rule="evenodd" d="M244.326 128.052C243.6 128.513 241.996 128.621 240.59 128.303C238.652 127.863 237.638 128.14 235.829 129.591C232.301 132.413 234.158 132.942 242.71 131.553C246.918 130.862 251.26 130.248 252.36 130.173C253.789 130.082 254.092 129.813 253.426 129.219C251.98 127.923 245.773 127.128 244.326 128.052Z" fill="#619CF4" fill-opacity="0.6"/>
<path fill-rule="evenodd" clip-rule="evenodd" d="M334.726 124.667C334.752 125.117 335.691 125.432 336.813 125.368C337.933 125.304 338.83 124.886 338.804 124.435C338.779 123.987 337.84 123.673 336.72 123.736C335.598 123.8 334.701 124.219 334.726 124.667Z" fill="#619CF4" fill-opacity="0.6"/>
<path fill-rule="evenodd" clip-rule="evenodd" d="M378.879 128.953C382.108 129.029 386.177 129.376 387.925 129.726C394.54 131.059 403.621 132.279 407.375 132.34C409.52 132.384 411.75 132.739 412.331 133.138C412.911 133.532 414.042 134.051 414.843 134.289C415.644 134.52 416.333 135.318 416.375 136.049C416.43 137.031 416.822 137.191 417.841 136.655C420.492 135.247 424.298 135.664 429.853 137.963C432.92 139.236 435.453 140.63 435.477 141.066C435.502 141.501 436.071 141.827 436.746 141.789C437.417 141.75 437.937 141.168 437.899 140.494C437.812 138.951 438.697 138.89 440.799 140.304C441.731 140.928 442.007 141.448 441.432 141.496C440.872 141.54 440.448 142.171 440.489 142.892C440.549 143.95 440.007 144.137 437.744 143.845C433.568 143.302 433.514 144.843 437.616 147.474C441.503 149.965 444.744 150.08 444.202 147.706C443.73 145.607 446.514 145.777 449.449 148.023C452.453 150.321 454.007 150.376 453.882 148.178C453.831 147.28 453.423 146.57 452.975 146.596C452.525 146.621 452.137 146.273 452.111 145.817C452.065 145.003 452.314 145.078 457.25 147.271C458.258 147.718 460.172 148.333 461.504 148.63C463.518 149.088 463.98 148.919 464.244 147.615C464.513 146.269 464.851 146.164 466.625 146.85C468.274 147.493 468.834 147.409 469.374 146.433C470.346 144.684 470.084 142.366 468.869 141.973C468.295 141.783 467.683 140.305 467.504 138.673C467.068 134.691 465.296 133.095 463.056 134.684C461.724 135.621 461.193 135.661 460.314 134.871C459.43 134.087 459.428 133.754 460.297 133.147C461.539 132.279 460.684 130.609 459.045 130.702C458.437 130.736 457.828 131.176 457.691 131.675C457.405 132.733 449.158 130.853 447.05 129.244C446.326 128.703 444.93 128.513 443.945 128.828C442.58 129.269 442.25 129.112 442.554 128.159C443.035 126.66 438.372 125.718 433.588 126.34C431.894 126.567 430.045 126.425 429.479 126.037C428.912 125.649 426.586 124.957 424.311 124.501C422.034 124.045 419.803 123.376 419.356 123.019C418.908 122.659 417.471 122.427 416.159 122.502C414.134 122.617 413.937 122.811 414.86 123.803C415.457 124.443 416.625 124.93 417.457 124.882C418.291 124.835 419.62 125.676 420.417 126.754C422.083 129.01 425.31 129.784 433.996 130.02C437.357 130.113 440.321 130.446 440.586 130.764C441.534 131.925 445.797 133.093 448.506 132.939C450.03 132.853 451.528 133.146 451.839 133.59C452.148 134.034 453.013 134.264 453.757 134.098C454.649 133.897 455.241 134.443 455.492 135.705C456.103 138.764 454.826 139.284 450.799 137.611C448.594 136.694 444.933 136.063 441.755 136.048C434.255 136.019 427.641 134.921 425.632 133.376C424.545 132.539 422.058 132.04 418.802 132.005C415.39 131.967 413.313 131.527 412.59 130.694C411.948 129.96 409.809 129.378 407.402 129.285C405.143 129.203 399.228 128.744 394.248 128.258C389.271 127.783 384.192 127.466 382.96 127.553C381.448 127.664 380.696 127.302 380.647 126.438C380.59 125.426 380.012 125.294 377.95 125.808C374.713 126.622 372.353 127.193 371.292 127.421C369.07 127.905 373.698 128.842 378.879 128.953Z" fill="#619CF4" fill-opacity="0.6"/>
<path fill-rule="evenodd" clip-rule="evenodd" d="M414.173 129.703C414.747 129.895 415.665 129.843 416.213 129.587C416.761 129.327 416.291 129.168 415.168 129.232C414.049 129.296 413.601 129.506 414.173 129.703Z" fill="#619CF4" fill-opacity="0.6"/>
<path fill-rule="evenodd" clip-rule="evenodd" d="M324.522 116.649C329.705 115.632 329.989 113.49 324.903 113.759C322.309 113.896 321.731 113.719 322.612 113.052C323.457 112.414 322.41 112.281 318.903 112.573C315.879 112.829 313.499 113.485 312.661 114.3C311.912 115.022 311.319 115.88 311.337 116.207C311.393 117.189 320.248 117.482 324.522 116.649Z" fill="#619CF4" fill-opacity="0.6"/>
<path fill-rule="evenodd" clip-rule="evenodd" d="M334.96 116.726C338.319 117.982 340.71 118.12 342.821 117.168C345.048 116.166 343.197 115.184 339.471 115.396C337.478 115.509 335.828 115.237 335.802 114.784C335.777 114.339 334.836 114.024 333.716 114.088C330.763 114.256 331.276 115.34 334.96 116.726Z" fill="#619CF4" fill-opacity="0.6"/>
<path fill-rule="evenodd" clip-rule="evenodd" d="M307.186 115.184C306.754 115.49 306.412 115.899 306.423 116.096C306.434 116.295 306.808 116.435 307.255 116.409C307.706 116.384 308.05 115.974 308.023 115.499C307.997 115.027 307.62 114.88 307.186 115.184Z" fill="#619CF4" fill-opacity="0.6"/>
<path fill-rule="evenodd" clip-rule="evenodd" d="M378.636 121.405C380.387 120.338 380.926 118.29 379.213 119.212C378.666 119.505 377.564 120.014 376.768 120.346C375.842 120.729 375.616 121.216 376.143 121.685C376.671 122.154 377.572 122.056 378.636 121.405Z" fill="#619CF4" fill-opacity="0.6"/>
<path fill-rule="evenodd" clip-rule="evenodd" d="M337.596 175.235C337.621 175.681 338.376 176.011 339.274 175.96C340.17 175.909 340.885 175.495 340.859 175.05C340.834 174.602 340.077 174.275 339.181 174.325C338.283 174.376 337.571 174.787 337.596 175.235Z" fill="#619CF4" fill-opacity="0.6"/>
<path fill-rule="evenodd" clip-rule="evenodd" d="M312.493 172.031C311.817 172.336 311.285 172.966 311.311 173.426C311.37 174.467 312.215 174.434 313.736 173.345C315.169 172.326 314.178 171.273 312.493 172.031Z" fill="#619CF4" fill-opacity="0.6"/>
<path fill-rule="evenodd" clip-rule="evenodd" d="M229.207 176.475C227.477 176.574 226.526 176.961 226.854 177.429C227.157 177.861 228.485 178.156 229.804 178.081C231.123 178.006 232.183 177.576 232.157 177.128C232.132 176.68 230.804 176.385 229.207 176.475Z" fill="#619CF4" fill-opacity="0.6"/>
<path fill-rule="evenodd" clip-rule="evenodd" d="M416.181 89.7014C415.604 89.9712 414.898 89.9816 414.612 89.7287C414.326 89.4685 414.798 89.2516 415.658 89.2348C416.613 89.2251 416.816 89.4062 416.181 89.7014ZM407.935 89.6134C407.487 89.6388 406.873 89.3033 406.572 88.8711C406.268 88.439 406.385 88.062 406.833 88.0366C407.283 88.011 407.9 88.3464 408.203 88.7785C408.504 89.2108 408.385 89.5879 407.935 89.6134ZM374.348 86.6066C372.312 86.7221 371.158 85.526 372.438 84.6312C372.923 84.2976 373.944 84.5779 374.708 85.2603C375.996 86.4119 375.967 86.5147 374.348 86.6066ZM363.113 69.1862C360.901 69.3685 360.267 69.0193 361.424 68.2649C361.747 68.0514 362.764 68.1295 363.683 68.4403C365.14 68.9304 365.067 69.0259 363.113 69.1862ZM356.194 69.8209C352.808 70.3167 347.676 69.729 349.812 69.0893C351.66 68.5351 359.985 68.2404 360.013 68.7227C360.032 69.0179 358.312 69.5106 356.194 69.8209ZM306.55 95.3371C303.999 95.4992 301.666 95.2736 301.362 94.8415C301.059 94.4094 301.108 94.0165 301.468 93.9689C301.828 93.9188 303.453 93.6686 305.073 93.4014C306.812 93.1176 308.675 93.3575 309.607 93.986C311.031 94.9397 310.72 95.0783 306.55 95.3371ZM275.376 86.5663C274.624 87.4089 268.46 87.8623 249.861 88.4463C247.837 88.5092 245.429 88.1867 244.502 87.7332C243.577 87.2721 239.696 87.0109 235.877 87.1437C226.704 87.4667 225.027 87.4138 223.861 86.7516C223.323 86.4488 222.311 86.4569 221.612 86.7656C220.777 87.1463 220.318 86.8934 220.269 86.0271C220.228 85.306 219.644 84.7491 218.972 84.7873C218.3 84.8254 217.723 84.4434 217.694 83.9389C217.658 83.299 218.848 83.1278 221.551 83.3768C225.314 83.7262 232.91 83.3223 242.021 82.2942C244.771 81.9851 247.329 82.2127 248.979 82.9215C250.414 83.5387 254.551 84.0397 258.167 84.032C261.787 84.0291 265.192 84.3444 265.742 84.7305C266.748 85.4437 269.388 85.7531 273.8 85.6756C275.536 85.6412 275.978 85.8927 275.376 86.5663ZM201.577 51.906C199.911 53.277 195.865 53.7658 195.113 52.6852C194.844 52.3004 191.988 52.0946 188.766 52.2305C185.545 52.3615 182.735 52.3136 182.521 52.1208C182.084 51.7308 186.284 50.2432 187.56 50.3362C188.011 50.3674 191.685 50.4576 195.727 50.5369C202.269 50.6693 202.902 50.8161 201.577 51.906ZM142.648 55.4621C139.393 55.6246 136.713 55.4286 136.69 55.0176C136.667 54.6115 137.492 54.2289 138.523 54.1704C139.554 54.1119 140.737 53.6818 141.151 53.2214C142.256 51.9835 156.055 50.2573 156.117 51.3499C156.204 52.8782 148.761 55.1498 142.648 55.4621ZM134.062 51.9598C133.09 52.6544 133.077 53.0823 133.99 54.3859C135.363 56.3399 134.461 56.6726 124.778 57.7603C121.085 58.1723 118.06 58.3662 118.049 58.1865C118.017 57.623 123.061 55.2653 127.04 53.9829C129.149 53.3003 131.052 52.4146 131.268 52.0171C131.487 51.6121 132.469 51.2454 133.454 51.1969C134.899 51.1247 135.014 51.2738 134.062 51.9598ZM197.501 32.0285C198.562 31.988 198.535 32.155 197.352 32.9307C196.559 33.4546 195.748 33.7352 195.545 33.5541C194.937 33.0085 196.124 32.0844 197.501 32.0285ZM201.14 30.9797C201.905 30.9363 202.217 30.1656 202.036 28.7587C201.81 27.0038 202.206 26.453 204.168 25.7763C207.316 24.7014 208.929 25.2443 208.523 27.2574C208.289 28.4088 208.673 28.8981 209.896 29.0064C210.832 29.0916 211.755 29.5651 211.948 30.0578C212.413 31.2412 209.618 32.1108 204.342 32.4225C201.985 32.5662 200.04 32.3136 200.015 31.8633C199.989 31.4154 200.492 31.0165 201.14 30.9797ZM225.901 33.8731C227.693 33.7788 228.343 33.9123 227.34 34.1642C226.337 34.4162 224.867 34.4922 224.076 34.3322C223.284 34.1722 224.107 33.9675 225.901 33.8731ZM235.945 34.266L241.498 34.7977L237.273 35.7807C234.154 36.5033 232.71 36.5062 231.754 35.8025C229.398 34.0647 230.327 33.7207 235.945 34.266ZM246.144 34.2201C248.374 34.0566 251.173 33.1793 252.801 32.1364C255.924 30.1469 258.418 29.719 259.329 31.0228C259.692 31.5429 261.017 31.6109 262.66 31.2065C265.424 30.5238 266.162 31.1362 264.635 32.8499C264.034 33.5234 264.072 33.9336 264.772 34.3136C265.358 34.6358 265.887 34.1516 266.099 33.1026C266.38 31.7114 267.084 31.3258 269.616 31.1821C273.155 30.9813 273.783 32.0296 271.092 33.6537C270.113 34.2401 269.114 35.0696 268.868 35.4884C268.624 35.9171 266.988 36.3284 265.237 36.408C263.486 36.4876 258.656 36.7271 254.507 36.9378C250.357 37.1462 246.941 36.9993 246.919 36.6056C246.897 36.2118 245.848 35.5751 244.592 35.1946C242.477 34.5566 242.596 34.4807 246.144 34.2201ZM274.776 31.4427C276.813 30.5247 281.75 30.3705 281.798 31.2245C281.821 31.6231 280.59 32.1646 279.062 32.434L279.067 32.4337C277.544 32.7003 275.637 32.7295 274.836 32.496C273.443 32.0985 273.44 32.0468 274.776 31.4427ZM285.189 36.8116C288.063 35.7696 289.07 35.7668 292.304 36.798C297.792 38.5406 297.772 39.4034 292.24 39.7174C289.572 39.8688 286.144 39.5473 284.617 39.0093L281.841 38.0237L285.189 36.8116ZM477.571 106.292C476.916 106.102 475.53 105.129 474.49 104.124C473.451 103.126 472.091 102.312 471.47 102.318C470.846 102.328 468.634 101.548 466.555 100.587C464.473 99.6237 461.731 98.4733 460.462 98.0293C459.187 97.5856 458.223 96.7762 458.313 96.2304C458.403 95.6871 457.014 94.092 455.223 92.69C451.441 89.7296 451.944 87.8988 455.987 89.9161C457.938 90.8917 458.969 90.9937 459.93 90.3096C461.886 88.9246 460.896 88.013 457.314 87.8953C455.548 87.8399 453.552 87.3804 452.877 86.8805C451.101 85.5641 449.716 85.4452 442.013 85.9071C438.211 86.1376 434.708 86.0599 434.23 85.7314C433.75 85.4032 430.97 85.2252 428.051 85.3365C425.018 85.4469 421.366 85.0097 419.531 84.3115C416.602 83.1963 416.439 82.9834 417.701 81.9489C419.982 80.0739 418.2 79.696 413.588 81.0861C407.206 83.0012 401.017 81.7032 400.68 78.367C400.649 78.0355 404.354 77.6425 408.918 77.4922C414.586 77.3088 417.3 76.9178 417.48 76.2656C417.625 75.7414 417.27 75.3912 416.692 75.4759C413.263 76.0111 404.081 74.7818 403.166 73.6684C402.275 72.5857 401.949 72.5795 400.832 73.6181C399.294 75.0509 386.458 76.3521 383.786 75.3483C382.341 74.8081 382.504 74.7125 384.705 74.8221C386.17 74.8945 387.354 74.6447 387.333 74.278C387.312 73.9088 388.885 72.748 390.826 71.6973C395.106 69.3805 396.69 67.5698 394.927 67.0081C394.266 66.7963 392.74 67.0607 391.541 67.6003C388.56 68.9273 383.161 69.1473 382.688 67.9594C382.435 67.322 380.289 67.0908 376.451 67.2912C373.231 67.4567 370.581 67.3577 370.565 67.0722C370.515 66.327 366.051 65.8495 356.555 65.5662C352.012 65.429 347.761 64.9222 347.112 64.443C346.462 63.9589 343.879 63.4735 341.379 63.3561C338.879 63.2412 336.995 62.8469 337.196 62.4775C337.882 61.2066 335.569 60.7354 329.078 60.8125C325.498 60.8576 322.264 60.7276 321.891 60.5216C321.515 60.3208 316.122 60.217 309.897 60.2961C295.787 60.4746 292.026 60.103 291.937 58.5329C291.887 57.6469 292.882 57.267 295.724 57.0909C300.73 56.7747 302.952 54.7254 298.227 54.7762C286.689 54.9051 285.507 55.0388 286.001 56.1317C286.368 56.9503 285.716 57.2465 283.455 57.3032C280.43 57.3786 274.675 56.5423 276.311 56.2643C276.783 56.1857 277.849 55.5351 278.683 54.8236C280.053 53.6522 279.457 53.5749 272.455 54.0093C268.194 54.2782 264.148 54.3745 263.465 54.2256C258.016 53.051 255.91 53.0915 255.046 54.3923C254.265 55.5624 253.138 55.703 246.761 55.4105C242.7 55.2312 237.154 54.8299 234.436 54.5274C231.72 54.2198 225.638 54.1206 220.923 54.3017C212.515 54.6282 209.033 53.9592 206.274 51.4963C204.63 50.0317 205.856 49.5671 211.726 49.429C217.18 49.3047 221.743 47.6904 222.392 45.6537C222.915 44.0242 219.208 44.3061 217.682 46.0148C216.75 47.0651 215.379 47.2812 210.937 47.0938C207.873 46.964 203.53 47.0055 201.294 47.1917C197.738 47.4799 197.393 47.371 198.585 46.3553C199.336 45.7079 199.939 44.9897 199.926 44.7535C199.913 44.5197 196.802 44.6962 193.011 45.1459C186.49 45.9208 186.03 45.8704 184.365 44.1132C182.782 42.4501 182.508 42.4015 181.656 43.6201C180.917 44.6866 179.382 45.0181 174.585 45.1471C165.681 45.3784 162.071 44.7611 162.413 43.0554C162.639 41.939 162.12 41.7166 159.754 41.9126C158.139 42.0437 156.462 42.3882 156.032 42.6793C155.599 42.9705 154.103 43.527 152.705 43.91C149.894 44.6793 148.125 43.4415 150.802 42.5761C153.059 41.8456 152.053 40.6411 148.799 40.1789C147.187 39.9519 146.438 39.4982 146.88 39.0188C147.284 38.5737 149.11 38.4256 151.057 38.6756C153.243 38.954 154.813 38.7809 155.326 38.2062C155.898 37.5689 156.945 37.5317 158.843 38.0906C161.931 38.9942 175.938 38.4067 184.35 37.0184C189.883 36.1069 193.41 36.5265 194.855 38.2739C195.277 38.7858 195.762 38.6274 196.211 37.8415C196.821 36.76 198.319 36.6997 208.136 37.3203C219.526 38.0466 221.228 38.4044 219.388 39.6914C218.642 40.2152 218.891 40.5195 220.293 40.8054C221.354 41.0192 222.326 40.8307 222.454 40.3815C222.579 39.93 223.02 39.7494 223.438 39.9776C225.101 40.8757 241.554 40.2136 242.646 39.1962C243.507 38.3943 243.752 38.4569 243.812 39.5028C243.853 40.2313 244.204 40.8088 244.596 40.7866C244.985 40.7646 248.568 41.1266 252.554 41.5941C256.543 42.0566 262.633 42.2122 266.089 41.942C269.545 41.6768 272.7 41.6286 273.1 41.8355C273.501 42.0448 280.278 42.6824 288.164 43.2521C299.005 44.0318 303.042 44.0397 304.735 43.2919C306.387 42.5562 306.989 42.5468 307.028 43.2432C307.163 45.4946 325.49 46.8445 327.368 44.7406C328.157 43.8564 326.373 42.6911 324.394 42.8034C323.22 42.87 321.112 42.6465 319.712 42.3086C311.436 40.302 309.218 40.0131 304.024 40.293C298.848 40.5719 298.25 40.4379 297.945 38.9295C297.416 36.3054 301.071 34.7277 304.384 36.1519C306.707 37.1509 307.142 37.1212 308.884 35.8348C310.088 34.9444 311.686 34.5327 313.155 34.7407C314.442 34.9245 315.685 34.7255 315.917 34.3C316.523 33.1867 313.969 32.2404 309.242 31.8248C306.979 31.6273 304.812 31.2935 304.425 31.0883C302.976 30.3065 296.132 30.6973 294.284 31.6712C292.699 32.5043 292.204 32.441 291.499 31.333C290.892 30.3848 290.058 30.1655 288.673 30.5972C287.472 30.9739 286.685 30.8606 286.654 30.3068C286.626 29.8122 285.392 29.4724 283.91 29.5564C282.431 29.6404 280.843 29.3725 280.383 28.9641C279.923 28.5532 275.139 28.2716 269.751 28.3354C264.365 28.404 257.733 28.22 255.018 27.9272C248.06 27.1789 243.704 27.552 241.94 29.0495C239.65 30.9916 235.902 30.992 235.273 29.0427C234.756 27.45 232.923 26.9516 232.234 28.2202C232.038 28.5844 230.835 28.8921 229.565 28.9074C228.294 28.9227 225.877 28.9562 224.192 28.9802C222.14 29.0152 221.104 28.6444 221.06 27.8667C221.007 26.9414 220.019 26.8395 216.326 27.3774L211.661 28.0569L213.523 26.3662C215.453 24.6074 215.077 22.5426 213.002 23.48C212.352 23.7736 211.237 23.5826 210.528 23.0574C209.82 22.5396 209.042 22.3221 208.808 22.5872C208.571 22.8525 207.217 22.6553 205.799 22.1556C204.063 21.5406 202.429 21.5147 200.793 22.0866C199.152 22.6636 198.158 22.6459 197.736 22.0428C197.309 21.4325 196.138 21.4249 194.012 22.027C192.309 22.5088 186.601 23.1734 181.334 23.4994C171.892 24.092 171.75 24.0729 171.646 22.2419C171.523 20.0763 169.501 19.8577 168.504 21.9018C167.641 23.674 165.671 22.6773 166.076 20.6718C166.427 18.931 165.331 18.6352 157.519 18.3675C150.976 18.1413 132.44 19.1043 126.925 19.953C124.696 20.3017 119.582 21.0264 115.564 21.5705C111.195 22.1591 107.747 23.051 106.996 23.7824C106.161 24.5952 102.919 25.2951 97.3302 25.8666C92.7079 26.3363 88.5839 27.1036 88.1591 27.5795C87.7414 28.0501 86.0023 28.5117 84.2993 28.6084C82.0869 28.7339 81.2186 29.1387 81.2682 30.0124C81.338 31.2429 80.5234 31.5928 77.8749 31.4739C77.0852 31.4373 76.4652 31.8675 76.4972 32.4311C76.5305 33.0168 76.0514 32.8415 75.3777 32.0206C74.2534 30.6549 73.8986 30.6676 67.4166 32.302C63.6827 33.2422 60.0776 33.9726 59.4011 33.9296C57.6689 33.8155 52.5496 35.2294 46.9824 37.3649C44.3773 38.3596 41.2768 39.2367 40.0955 39.3037C38.9142 39.3708 37.5314 39.8887 37.0255 40.4581C36.5147 41.0278 36.0843 41.188 36.0633 40.8188C36.0425 40.4522 35.4339 40.6916 34.7083 41.3475C33.8138 42.1612 33.5696 42.2096 33.946 41.4896C34.3342 40.759 33.8685 40.4718 32.4141 40.5544C31.1664 40.6252 30.3533 41.133 30.392 41.8147C30.496 43.6481 26.2852 45.0178 24.3682 43.7786C21.8921 42.1736 20.6213 42.621 20.7593 45.0524L20.8837 47.2452L19.1189 45.5554C16.8111 43.3483 15.2893 43.5062 13.7836 46.1223C13.1068 47.2915 11.6949 48.5147 10.6445 48.8434C8.46118 49.5253 8.26708 51.0645 10.1499 52.7452C10.8602 53.3838 11.4716 54.4552 11.5097 55.1271C11.548 55.8014 12.356 56.553 13.3005 56.7957C14.2501 57.0405 14.8709 57.4077 14.6832 57.6233C14.2396 58.1175 9.95062 56.4549 9.91194 55.7732C9.88275 55.2589 4.72131 55.8431 2.79566 56.5844C1.64531 57.0225 1.56993 59.1748 2.68295 59.7757C3.09574 60.0017 3.74292 61.1821 4.12585 62.4047C4.50358 63.6227 5.72992 65.6986 6.85117 67.0101C7.97241 68.3217 9.06677 70.247 9.28144 71.2891C9.66019 73.1341 10.7037 73.9464 13.6433 74.6709C14.7554 74.9509 15.1441 75.9263 15.3117 78.8795C15.5882 83.7523 18.3618 92.8632 20.1119 94.6402C20.8455 95.3862 22.516 95.9358 23.8204 95.8617C26.616 95.7031 29.4216 96.8499 29.4969 98.1764C29.5261 98.6908 28.8334 99.9719 27.9545 101.017L26.3569 102.927L28.4482 106.149C29.6032 107.925 31.0943 109.359 31.7698 109.34C33.8868 109.274 36.2182 111.332 35.7384 112.841C35.1408 114.709 36.8339 116.395 39.1694 116.263C40.2104 116.204 41.2933 116.493 41.5833 116.904C42.1503 117.716 46.6893 117.083 50.5338 115.655C51.859 115.165 55.0356 114.454 57.5986 114.067C62.3207 113.354 65.1102 111.868 68.4331 108.297C69.4477 107.207 70.6843 106.288 71.1815 106.259C71.6834 106.228 73.1586 105.555 74.4641 104.762C75.9198 103.875 79.5096 103.049 83.7518 102.625C87.557 102.244 93.3976 101.401 96.736 100.758C100.075 100.114 108.969 98.6637 116.5 97.5352C129.301 95.6187 130.295 95.5697 131.804 96.7827C133.271 97.9685 134.464 97.9428 145.272 96.4925C151.792 95.6139 157.531 94.5475 158.02 94.1198C159.592 92.7468 162.812 92.1073 163.946 92.9441C164.582 93.4117 166.328 93.4632 168.086 93.0647C169.758 92.6859 173.631 91.8884 176.688 91.3001C179.743 90.7071 182.423 90.0242 182.641 89.7797C182.859 89.5353 183.801 90.2003 184.732 91.2584C186.627 93.4026 190.143 93.6326 192.895 91.7927C194.227 90.8974 194.648 90.8735 194.992 91.6737C195.225 92.2209 195.938 92.6421 196.573 92.6061C197.208 92.57 197.61 92.0855 197.465 91.5333C197.271 90.774 199.053 90.4556 204.552 90.2448C211.706 89.9722 213.978 90.0679 224.235 91.0487C237.995 92.3713 241.223 92.4301 243.191 91.3951C244.766 90.5601 245.335 90.5747 245.945 91.4462C246.587 92.3677 247.031 92.3524 248.648 91.3619C249.744 90.6973 251.37 90.3853 252.4 90.6527C254.071 91.0764 254.108 91.2027 252.886 92.2077C251.735 93.1545 252.223 93.4033 256.409 93.9928C259.077 94.3722 266.622 95.102 273.177 95.6213C279.734 96.1381 287.499 96.7911 290.441 97.0785C293.382 97.3584 301.141 97.8637 307.687 98.1934C314.231 98.5208 320.136 98.9461 320.804 99.1378C321.476 99.3243 324.81 99.6857 328.214 99.9296C331.618 100.181 337.177 100.594 340.566 100.853C343.954 101.115 349.686 101.503 353.295 101.713C359.458 102.072 364.92 102.602 374.688 103.798C376.953 104.079 381.57 104.333 384.946 104.359C393.456 104.439 389.632 103.431 376.227 102.066C370.344 101.464 360.158 100.383 353.589 99.6623C343.191 98.5167 317.746 96.3635 315.878 96.4695C315.513 96.4901 314.751 95.6199 314.181 94.5363C313.295 92.8534 313.372 92.4244 314.711 91.6127C315.572 91.0824 317.374 90.5159 318.713 90.3437C320.308 90.1421 320.991 89.6836 320.691 89.0143C320.101 87.7047 328.848 87.6996 331.675 89.0082C332.963 89.6066 337.959 89.6639 346.758 89.1818C353.991 88.7812 360.595 88.767 361.433 89.1416C362.271 89.5162 364.684 89.8755 366.796 89.9334C371.789 90.0846 379.701 91.0182 387.956 92.436C391.594 93.0641 396.292 93.6369 398.4 93.7123C400.506 93.7879 402.591 94.0448 403.038 94.2935C403.486 94.5323 407.502 95.0796 411.965 95.5004C421.353 96.3946 426.173 97.0716 430.821 98.1386C434.511 98.9908 440.033 99.8305 444.504 100.221C446.119 100.362 448.229 101.133 449.19 101.928C450.292 102.85 452.111 103.315 454.111 103.192C458.921 102.904 462.763 103.377 466.415 104.693C471.685 106.601 477.722 107.898 478.262 107.245C478.537 106.911 478.227 106.487 477.571 106.292Z" fill="#619CF4" fill-opacity="0.6"/>
<path fill-rule="evenodd" clip-rule="evenodd" d="M393.757 184.474C393.062 184.094 391.008 183.628 389.198 183.442C387.032 183.211 386.342 183.332 387.173 183.781C387.868 184.161 389.919 184.63 391.732 184.816C393.898 185.044 394.59 184.923 393.757 184.474Z" fill="#619CF4" fill-opacity="0.6"/>
<path fill-rule="evenodd" clip-rule="evenodd" d="M450.72 161.115C447.77 161.732 447.35 162.035 448.301 162.857C448.937 163.404 451.099 163.881 453.113 163.915C455.97 163.955 456.813 163.68 456.966 162.63C457.234 160.783 454.959 160.235 450.72 161.115Z" fill="#619CF4" fill-opacity="0.6"/>
<path fill-rule="evenodd" clip-rule="evenodd" d="M421.39 189.842C419.63 189.756 418.932 189.811 419.842 189.967C420.75 190.122 421.863 190.565 422.312 190.95C422.764 191.334 424.065 191.593 425.208 191.509C428.322 191.295 425.438 190.034 421.39 189.842Z" fill="#619CF4" fill-opacity="0.6"/>
<path fill-rule="evenodd" clip-rule="evenodd" d="M462.997 175.158C463.286 175.413 463.986 175.401 464.564 175.133C465.201 174.836 464.996 174.65 464.044 174.669C463.183 174.681 462.711 174.9 462.997 175.158Z" fill="#619CF4" fill-opacity="0.6"/>
<path fill-rule="evenodd" clip-rule="evenodd" d="M437.704 192.226C434.554 192.015 434.327 192.1 435.706 193.031C436.558 193.6 438.524 194.014 440.073 193.939C443.887 193.757 442.191 192.532 437.704 192.226Z" fill="#619CF4" fill-opacity="0.6"/>
<path fill-rule="evenodd" clip-rule="evenodd" d="M446.986 187.029C446.592 187.051 446.311 187.8 446.362 188.699C446.451 190.266 448.083 190.818 449.137 189.64C449.719 188.989 448.054 186.968 446.986 187.029Z" fill="#619CF4" fill-opacity="0.6"/>
<path fill-rule="evenodd" clip-rule="evenodd" d="M430.901 183.853C429.806 183.915 428.931 184.325 428.956 184.763C429.007 185.666 432.987 186.626 433.642 185.895C434.482 184.951 432.855 183.742 430.901 183.853Z" fill="#619CF4" fill-opacity="0.6"/>
<path fill-rule="evenodd" clip-rule="evenodd" d="M408.255 186.859C406.19 186.593 404.517 186.656 404.537 187C404.587 187.877 406.248 188.308 410.867 188.644C415.954 189.017 413.853 187.583 408.255 186.859Z" fill="#619CF4" fill-opacity="0.6"/>
<path fill-rule="evenodd" clip-rule="evenodd" d="M402.865 186.335C402.169 185.994 400.76 185.499 399.734 185.254C398.708 184.998 397.886 185.146 397.91 185.569C397.956 186.367 400.735 187.189 402.904 187.037C403.989 186.965 403.984 186.884 402.865 186.335Z" fill="#619CF4" fill-opacity="0.6"/>
<path fill-rule="evenodd" clip-rule="evenodd" d="M468.315 171.486C467.327 172.179 468.269 174.121 469.838 174.622C471.244 175.078 472.554 174.413 472.49 173.289C472.432 172.25 469.205 170.863 468.315 171.486Z" fill="#619CF4" fill-opacity="0.6"/>
</svg>
